<?xml version="1.0" encoding="UTF-8"?>
<svg width="591px" height="134px" viewBox="0 0 591 134" version="1.1" xmlns="http://www.w3.org/2000/svg" xmlns:xlink="http://www.w3.org/1999/xlink">
    <!-- Generator: Sketch 55.2 (78181) - https://sketchapp.com -->
    <title>Untitled 2</title>
    <desc>Created with Sketch.</desc>
    <defs>
        <path d="M17.9798949,27.203513 L25.7888736,27.203513 L8.44834726,109.19779 L0.639368499,109.19779 L17.9798949,27.203513 Z M37.0429901,49.9414217 L43.7035896,49.9414217 L41.636507,60.7361865 L41.8661829,60.7361865 C44.0863938,57.2144726 47.0530105,54.2478559 50.7661219,51.8362475 C54.4792333,49.424639 58.5559388,48.2188529 62.9963607,48.2188529 C65.5993666,48.2188529 67.9917994,48.5250843 70.1737309,49.1375563 C72.3556623,49.7500283 74.2504691,50.6878619 75.8582081,51.9510854 C77.465947,53.2143089 78.7100121,54.8603026 79.5904406,56.8891161 C80.470869,58.9179295 80.9110767,61.3486413 80.9110767,64.1813242 C80.9110767,65.7890631 80.6048453,68.1240776 79.9923733,71.1864375 L71.8388808,109.19779 L64.6040916,109.19779 L72.8724221,70.9567616 C73.1020991,70.0380537 73.2934937,69.0619411 73.4466117,68.0283946 C73.5997297,66.9948481 73.6762875,65.9804566 73.6762875,64.9851896 C73.6762875,62.9946557 73.3317772,61.3295225 72.6427462,59.98974 C71.9537152,58.6499575 71.035021,57.5590082 69.8866361,56.7168592 C68.7382511,55.8747102 67.4176282,55.2622474 65.9247277,54.8794524 C64.4318273,54.4966574 62.8815308,54.3052628 61.2737918,54.3052628 C58.6707859,54.3052628 56.1443769,54.8794467 53.6944889,56.0278317 C51.244601,57.1762166 48.9861444,58.8030709 46.9190515,60.9084434 C44.8519585,63.0138158 43.052849,65.5785038 41.5216691,68.6025842 C39.9904891,71.6266646 38.8421214,75.0143495 38.0765314,78.7657404 L31.5307698,109.19779 L24.4108186,109.19779 L37.0429901,49.9414217 Z M94.3471137,89.9050189 C94.3471137,92.8142609 94.8256002,95.2258331 95.7825877,97.1398081 C96.7395752,99.053783 98.0027797,100.58494 99.5722392,101.733325 C101.141699,102.88171 102.940808,103.685567 104.969622,104.144921 C106.998435,104.604275 109.046357,104.833949 111.11345,104.833949 C112.721189,104.833949 114.405462,104.623415 116.166319,104.20234 C117.927176,103.781266 119.534891,103.130524 120.989512,102.250096 C122.444133,101.369667 123.649919,100.240439 124.606906,98.8623769 C125.563894,97.484315 126.04238,95.8383212 126.04238,93.9243462 C126.04238,91.9338123 125.563894,90.2878185 124.606906,88.9863156 C123.649919,87.6848126 122.424993,86.5555843 120.932093,85.5985968 C119.439192,84.6416093 117.73578,83.799473 115.821805,83.0721625 C113.90783,82.344852 111.993884,81.598413 110.079909,80.832823 C108.165934,80.067233 106.251988,79.2442362 104.338013,78.3638077 C102.424038,77.4833792 100.720626,76.4115693 99.2277254,75.1483458 C97.7348249,73.8851224 96.5290388,72.3922443 95.6103308,70.6696668 C94.6916228,68.9470894 94.2322757,66.860888 94.2322757,64.411 C94.2322757,61.5017581 94.9212964,59.0327674 96.2993584,57.003954 C97.6774203,54.9751405 99.4382509,53.3100073 101.581903,52.0085043 C103.725555,50.7070014 106.098848,49.7500283 108.701854,49.1375563 C111.30486,48.5250843 113.79299,48.2188529 116.166319,48.2188529 C119.305238,48.2188529 122.176157,48.5633632 124.779163,49.2523942 C127.382169,49.9414252 129.621486,51.051514 131.497182,52.582694 C133.372877,54.1138739 134.827476,56.0852386 135.861023,58.496847 C136.894569,60.9084554 137.373056,63.8367932 137.296497,67.2819481 L130.061708,67.2819481 C130.214826,64.9851782 129.946873,63.032953 129.257842,61.425214 C128.568811,59.8174751 127.592699,58.4777127 126.329475,57.4058867 C125.066252,56.3340608 123.554234,55.5493428 121.793377,55.0517093 C120.03252,54.5540758 118.156853,54.3052628 116.166319,54.3052628 C114.55858,54.3052628 112.893447,54.4583785 111.170869,54.7646145 C109.448292,55.0708505 107.878856,55.587616 106.462515,56.3149265 C105.046173,57.0422369 103.859526,58.0566284 102.902539,59.3581314 C101.945551,60.6596344 101.467065,62.3439071 101.467065,64.411 C101.467065,65.789062 101.811575,67.0139876 102.500606,68.0858136 C103.189637,69.1576395 104.108331,70.1146127 105.256716,70.9567616 C106.405101,71.7989106 107.725724,72.5644891 109.218625,73.2535201 C110.711525,73.9425511 112.300101,74.6315717 113.984398,75.3206027 C116.051491,76.1627517 118.214251,77.0240275 120.472741,77.904456 C122.731232,78.7848845 124.798294,79.8758338 126.673989,81.1773368 C128.549684,82.4788398 130.11912,84.0482757 131.382344,85.8856916 C132.645567,87.7231076 133.27717,90.0198431 133.27717,92.775967 C133.27717,96.1445629 132.569009,98.9772034 131.152668,101.273973 C129.736327,103.570743 127.879799,105.427271 125.583029,106.843613 C123.286259,108.259954 120.721571,109.274346 117.888888,109.886818 C115.056205,110.49929 112.223565,110.805521 109.390882,110.805521 C106.48164,110.805521 103.668139,110.422732 100.950294,109.657142 C98.2324498,108.891552 95.840017,107.666626 93.7729241,105.982328 C91.7058311,104.29803 90.0598373,102.135271 88.8348934,99.4939855 C87.6099494,96.8527001 87.0740444,93.6564098 87.2271624,89.9050189 L94.3471137,89.9050189 Z M158.886026,27.203513 L166.120816,27.203513 L163.594381,38.8021432 L156.359592,38.8021432 L158.886026,27.203513 Z M153.947996,49.9414217 L161.182785,49.9414217 L148.435775,109.19779 L141.315824,109.19779 L153.947996,49.9414217 Z M214.008229,109.19779 L207.003116,109.19779 L209.644388,98.5178632 L209.414713,98.5178632 C206.888266,102.422372 203.959928,105.446407 200.629611,107.590059 C197.299295,109.733711 193.031195,110.805521 187.825183,110.805521 C180.245842,110.805521 174.599701,108.604483 170.886589,104.20234 C167.173478,99.800198 165.31695,93.9626619 165.31695,86.6895571 C165.31695,82.1725762 166.063389,77.6173841 167.55629,73.0238443 C169.04919,68.4303044 171.211949,64.2961805 174.044632,60.6213486 C176.877315,56.9465167 180.284139,53.9607605 184.265207,51.6639906 C188.246275,49.3672206 192.724909,48.2188529 197.701244,48.2188529 C202.371343,48.2188529 206.428909,49.1949655 209.874064,51.1472199 C213.319219,53.0994744 215.692512,56.4106014 216.994015,61.0807003 L217.223691,61.0807003 L224.343643,27.203513 L231.578432,27.203513 L214.008229,109.19779 Z M188.514211,104.833949 C192.648396,104.833949 196.323173,103.781278 199.538651,101.675906 C202.754129,99.5705336 205.452793,96.8910089 207.634725,93.6372514 C209.816656,90.383494 211.481789,86.7852751 212.630174,82.8424867 C213.778559,78.8996983 214.352743,75.0909452 214.352743,71.4161133 C214.352743,66.1335425 212.917284,61.9611397 210.046321,58.8987797 C207.175359,55.8364198 203.098653,54.3052628 197.816082,54.3052628 C193.681896,54.3052628 190.026259,55.3387938 186.849061,57.4058867 C183.671862,59.4729797 181.030616,62.1142255 178.925244,65.3297034 C176.819872,68.5451813 175.231296,72.0859819 174.15947,75.9522113 C173.087644,79.8184407 172.551739,83.5506359 172.551739,87.1489088 C172.551739,92.2018027 173.853223,96.4124844 176.456229,99.7810803 C179.059235,103.149676 183.078522,104.833949 188.514211,104.833949 Z M278.432304,75.4354406 C278.432304,74.5932917 278.451444,73.8085737 278.489723,73.0812632 C278.528003,72.3539527 278.547142,71.6075137 278.547142,70.8419237 C278.547142,65.7890298 277.111682,61.7697427 274.24072,58.7839418 C271.369758,55.7981409 267.407889,54.3052628 262.354995,54.3052628 C259.369194,54.3052628 256.632251,54.8985861 254.144084,56.0852506 C251.655916,57.2719151 249.435738,58.841351 247.483484,60.7936055 C245.53123,62.7458599 243.904375,64.985177 242.602872,67.511624 C241.301369,70.0380709 240.344396,72.6793167 239.731924,75.4354406 L278.432304,75.4354406 Z M238.813221,81.5218506 C238.583544,82.8999125 238.468707,84.4310695 238.468707,86.1153675 C238.468707,88.7949324 238.813217,91.2830625 239.502248,93.5798325 C240.191279,95.8766024 241.24395,97.847967 242.660291,99.4939855 C244.076633,101.140004 245.875742,102.441487 248.057674,103.398475 C250.239605,104.355462 252.785154,104.833949 255.694395,104.833949 C260.517612,104.833949 264.613457,103.475047 267.982053,100.757203 C271.350649,98.0393582 273.723943,94.4985577 275.102004,90.1346948 L282.336794,90.1346948 C280.34626,96.8718866 277.13083,102.001263 272.690408,105.522976 C268.249986,109.04469 262.469869,110.805521 255.349882,110.805521 C247.464305,110.805521 241.473653,108.585343 237.377747,104.144921 C233.28184,99.7044995 231.233918,93.5798715 231.233918,85.7708537 C231.233918,81.0241958 231.942078,76.4115854 233.358419,71.932884 C234.774761,67.4541826 236.860962,63.4540349 239.617086,59.932321 C242.37321,56.4106071 245.741756,53.5779667 249.722823,51.4343147 C253.703891,49.2906628 258.220805,48.2188529 263.273698,48.2188529 C266.871971,48.2188529 270.049122,48.7738973 272.805246,49.8840028 C275.56137,50.9941082 277.915524,52.5635442 279.867778,54.5923576 C281.820033,56.6211711 283.293771,59.0518828 284.289038,61.8845657 C285.284305,64.7172487 285.781931,67.8561205 285.781931,71.3012754 C285.781931,72.9855734 285.743652,74.6698461 285.667093,76.354144 C285.590534,78.038442 285.437419,79.7609936 285.207742,81.5218506 L238.813221,81.5218506 Z" id="path-1"></path>
    </defs>
    <g id="Page-1" stroke="none" stroke-width="1" fill="none" fill-rule="evenodd">
        <g id="tuzagInside" fill-rule="nonzero">
            <g id="Group-2" transform="translate(300.000000, 0.000000)">
                <g id="Inside">
                    <g>
                        <use fill="#000000" xlink:href="#path-1"></use>
                        <use fill="#7FAF41" xlink:href="#path-1"></use>
                    </g>
                </g>
            </g>
            <path d="M262.056559,49 C254.39557,49 243.386455,52.838366 239.667514,64.6168235 C239.667514,64.6168235 228.785434,101.310285 226.230572,109.623279 L240.883126,109.674617 C251.6175,109.674617 258.238049,100.663775 259.192702,96.2712293 L244.35479,96.2712293 C246.22974,89.9389552 249.121062,80.3739331 251.940278,71.1782315 C253.396276,66.4333788 256.847366,62.5916301 260.837552,62.5916301 L278.721384,62.5916301 L268.25476,97.625935 C264.978841,110.875406 253.990299,118.507565 244.742783,118.507565 L240.488242,118.535025 L238.242476,118.535025 C227.504607,118.535025 222.947762,127.539003 222,131.938413 L241.978495,132 C262.475512,132 276.317625,117.512131 279.912927,105.986785 L297,49 L262.056559,49 Z" id="Fill-3" fill="#36404A"></path>
            <path d="M204.041907,46.8084742 C188.139894,46.8084742 179.329155,53.7012211 175.570693,66.2528603 C171.805444,78.8115158 170.044654,84.6910185 168.469236,90.0087214 C167.336537,93.8341719 165.108971,96.3156129 157.767238,96.3156129 L129.450451,96.3156129 C129.450451,96.3156129 151.053596,76.3369908 162.115957,64.0437494 C168.877615,56.5169355 163.547229,48.7590871 156.33936,48.7590871 L116.589466,48.7590871 C104.692978,48.7590871 95.5664575,54.2905846 92.6729979,63.9059305 C90.7611846,70.2610336 86.8895128,83.2642175 84.5212057,91.1976721 C82.1391629,99.1312271 75.0719949,99.4414448 70.932596,99.4414448 C66.7829052,99.4414448 62.0153956,95.898548 63.7246966,89.8673944 C65.4271398,83.8294251 68.7530655,72.8458136 71.536689,63.568149 C74.3306044,54.2870765 68.9349842,48.7419474 58.8233235,48.7419474 C51.8453979,48.7419474 40.9683291,48.7867511 36.6470214,48.8004828 C36.7774511,48.373094 36.894145,47.9802853 36.9902552,47.6494198 C39.9695232,37.7204483 32.64492,31 25.9793328,31 L21.3491107,48.7590871 L0,48.7590871 C0,48.7590871 1.59603475,62.3791983 14.1274856,62.3791983 L17.803513,62.3791983 L9.84736419,92.9037192 C5.76632016,106.689113 18.9533421,109.887412 18.9533421,109.887412 C18.9533421,109.887412 27.1875089,81.3066886 32.6826733,62.3791983 L57.4229368,62.3791983 L49.3226237,90.9185263 C46.768974,99.3001178 53.8773391,112 69.7793329,112 C85.6813366,112 94.4852671,105.110761 98.243669,92.5590217 C102.005525,80.0038744 103.004361,76.0406051 104.682696,70.7641977 C106.35085,65.4705504 108.640207,62.3308865 116.925872,62.3308865 L145.331901,62.3308865 C145.331901,62.3308865 119.122592,87.4445891 112.268199,95.1507178 C105.403523,102.856746 111.32776,109.818453 114.368789,109.818453 L161.910021,109.818453 C172.031944,109.818453 178.824546,102.563869 182.088681,91.5768494 C184.007392,85.2148304 186.917952,75.5477648 189.300044,67.6176178 C191.675249,59.694487 198.738973,59.3636215 202.888644,59.3636215 C207.034921,59.3636215 211.802401,62.9065183 210.089726,68.9479957 C208.387233,74.9894732 204.690661,87.0242165 201.903584,96.3086969 L187.192567,96.3086969 C188.146781,100.737243 192.698043,109.811537 203.430986,109.811537 L212.073522,109.818453 C212.073522,109.818453 221.934705,76.2715393 224.491789,67.8933557 C227.045378,59.5117643 219.937033,46.8084742 204.041907,46.8084742" id="Fill-5" fill="#36404A"></path>
        </g>
    </g>
</svg>